# xmcd CD database file
#
# Track frame offsets:
#	150
#	17780
#	37209
#	54201
#	73217
#	105658
#	124787
#	156216
#	176096
#	194474
#
# Disc length: 2867 seconds
#
# Revision: 0
# Processed by: cddbd v1.5.2PL0 Copyright (c) Steve Scherf et al.
# Submitted via: CDex 1.70beta2
#
DISCID=8d0b310a
DTITLE=Theodis Ealey - I'm The Man You Need
DYEAR=2006
DGENRE=Blues
TTITLE0=Sumpin' Sumpin
TTITLE1=Pop That Middle
TTITLE2=Please, Let Me In
TTITLE3=I'm The Man You Need
TTITLE4=Let's Get It On
TTITLE5=Baby, Why?
TTITLE6=Looking Up At The Bottom
TTITLE7=Stand Up In It (Remix)
TTITLE8=You And I Together
TTITLE9=The Reason For The Season
EXTD=YEAR: 2006
EXTT0=
EXTT1=
EXTT2=
EXTT3=
EXTT4=
EXTT5=
EXTT6=
EXTT7=
EXTT8=
EXTT9=
PLAYORDER=
